<?xml version="1.0" standalone="no"?>
<!DOCTYPE svg PUBLIC "-//W3C//DTD SVG 20010904//EN"
 "http://www.w3.org/TR/2001/REC-SVG-20010904/DTD/svg10.dtd">
<svg version="1.0" xmlns="http://www.w3.org/2000/svg"
 width="1745.000000pt" height="3280.000000pt" viewBox="0 0 1745.000000 3280.000000"
 preserveAspectRatio="xMidYMid meet">
<metadata>
Created by potrace 1.16, written by Peter Selinger 2001-2019
</metadata>
<g transform="translate(0.000000,3280.000000) scale(0.100000,-0.100000)"
fill="#000000" stroke="none">
<path d="M0 25295 c0 -4128 4 -7505 8 -7505 5 0 64 16 133 35 134 38 198 46
109 15 -30 -11 -64 -24 -75 -29 -21 -10 -63 -19 -132 -28 l-43 -5 0 -8889 0
-8889 8725 0 8725 0 0 16400 0 16400 -8725 0 -8725 0 0 -7505z m11341 6705 c5
0 9 -13 9 -28 0 -26 3 -28 42 -31 47 -2 61 -8 53 -21 -3 -5 13 -19 35 -32 51
-29 51 -43 -1 -44 -39 -1 -64 -18 -53 -36 3 -4 -4 -8 -15 -8 -28 0 -33 -12
-33 -92 0 -53 -3 -67 -11 -59 -7 7 -11 35 -10 64 1 29 -7 86 -18 129 -10 42
-18 105 -18 140 1 34 4 53 6 41 2 -13 9 -23 14 -23z m-2561 -10341 c0 -9 9
-19 19 -22 14 -3 20 -16 24 -53 3 -27 10 -73 17 -103 8 -38 8 -57 1 -64 -16
-16 -13 -31 3 -18 15 13 29 1 40 -36 6 -18 2 -22 -24 -28 -21 -5 -30 -13 -30
-26 0 -25 -14 -24 -45 5 -22 20 -23 25 -9 30 10 4 14 12 10 22 -3 8 0 27 8 42
19 37 23 60 11 63 -5 2 -12 -10 -15 -26 -5 -32 -40 -49 -40 -21 0 9 -8 16 -20
16 -11 0 -20 -4 -20 -10 0 -5 7 -10 15 -10 8 0 15 -7 15 -15 0 -19 -17 -19
-36 -1 -18 19 -18 63 1 100 8 15 15 37 15 47 0 12 7 19 20 19 23 0 26 10 8 28
-9 9 -14 8 -22 -4 -9 -12 -12 1 -14 55 l-2 71 35 -22 c19 -13 35 -30 35 -39z
m5130 -1154 c85 -11 136 -23 195 -48 160 -66 164 -81 13 -44 -124 30 -314 67
-346 67 -28 0 -82 27 -82 41 0 10 11 9 220 -16z m-6095 -1472 c3 -10 1 -19 -4
-21 -6 -2 -11 -8 -11 -13 0 -4 6 -6 13 -3 9 3 13 -3 13 -18 -1 -33 31 -36 44
-4 9 26 10 26 45 9 19 -9 36 -24 37 -32 1 -16 4 -30 8 -43 7 -21 33 -140 36
-163 1 -11 3 -20 4 -20 1 0 3 -18 6 -40 6 -58 47 -215 55 -215 4 0 5 9 2 21
-3 12 -1 24 5 28 8 5 8 20 1 51 -6 25 -8 70 -4 100 4 42 3 51 -5 40 -10 -13
-11 -13 -7 0 2 8 14 21 28 27 13 7 19 13 13 13 -6 0 -11 7 -11 15 0 8 9 15 19
15 10 0 18 -7 18 -15 0 -8 9 -15 20 -15 10 0 39 -11 64 -25 25 -14 54 -25 65
-25 12 0 21 -4 21 -8 0 -15 37 -52 44 -45 3 3 6 1 6 -5 0 -7 -4 -12 -10 -12
-5 0 -10 -4 -10 -10 0 -5 6 -10 14 -10 8 0 16 -6 19 -14 4 -9 14 -12 27 -9 16
4 19 2 14 -11 -3 -9 -1 -16 5 -16 6 0 11 5 11 10 0 6 5 10 11 10 6 0 9 -6 6
-14 -4 -9 2 -14 16 -14 54 -2 252 -34 262 -42 31 -25 18 10 -29 83 -69 109
-68 107 -58 107 8 0 34 -41 109 -168 12 -20 31 -44 43 -54 11 -9 20 -20 20
-25 0 -13 78 -164 95 -183 18 -22 95 -174 95 -188 0 -7 5 -10 10 -7 6 3 10 2
10 -4 0 -6 13 -33 30 -60 l29 -50 -32 -5 c-18 -2 -113 -18 -212 -35 -99 -18
-188 -31 -198 -31 -10 0 -118 92 -239 204 -122 113 -235 211 -252 219 -78 38
-105 40 -483 34 -420 -6 -501 -15 -858 -92 -239 -51 -301 -68 -353 -97 -48
-27 -56 -37 -96 -121 -144 -302 -186 -390 -186 -393 0 -1 -25 -54 -55 -118
-66 -141 -240 -537 -306 -701 -32 -79 -53 -118 -62 -115 -6 3 -50 6 -97 7
l-85 1 3 44 c3 32 -8 80 -38 169 -103 309 -226 712 -327 1074 -4 14 -2 17 5
10 9 -8 39 -103 57 -178 10 -42 17 -57 27 -57 6 0 8 9 5 20 -3 11 -2 20 3 20
4 0 10 -9 13 -21 3 -13 12 -19 24 -17 16 3 18 -5 18 -69 0 -39 4 -75 9 -80 5
-4 7 3 3 17 -3 14 -1 34 4 45 l9 20 -1 -20 c-2 -37 1 -44 16 -39 8 4 21 1 28
-4 17 -15 42 2 34 22 -5 12 -14 15 -34 11 -16 -3 -21 -2 -13 2 16 7 39 33 40
45 0 4 -7 14 -16 22 -19 19 -9 39 16 31 13 -4 23 3 36 24 10 16 26 32 36 35
18 4 18 3 4 -19 -21 -32 -6 -76 23 -68 12 3 17 11 14 19 -5 15 2 17 75 16 23
-1 42 3 42 8 0 6 -9 10 -19 10 -11 0 -22 4 -26 10 -3 5 -13 6 -23 3 -15 -6
-15 -5 -2 8 8 8 23 18 34 22 11 4 16 13 12 22 -9 25 4 46 25 40 13 -4 19 -1
19 8 0 8 24 24 55 37 30 12 55 26 55 31 0 5 7 9 15 9 8 0 15 7 15 15 0 8 4 15
9 15 5 0 15 15 22 33 19 47 61 97 82 97 12 0 17 6 15 18 -6 34 23 72 53 72 26
0 27 2 27 47 0 27 -4 53 -9 60 -19 22 12 53 51 52 19 -1 27 -3 18 -6 -29 -7
-21 -20 18 -27 19 -4 45 -18 56 -32 12 -13 31 -24 41 -24 11 0 27 -7 36 -15
44 -40 59 -53 81 -68 14 -9 29 -17 36 -17 15 0 12 41 -6 60 -44 47 -80 90 -80
95 0 3 -16 19 -35 36 -19 17 -35 40 -35 50 0 10 -6 19 -12 19 -13 1 -68 73
-68 89 0 5 -12 12 -26 15 -20 5 -25 12 -21 26 3 13 0 20 -9 20 -8 0 -14 4 -14
9 0 5 -20 30 -45 55 -25 26 -45 57 -45 68 0 17 2 18 15 8 8 -7 15 -9 15 -4 0
5 4 4 8 -1 32 -44 116 -81 207 -91 32 -4 36 -3 23 6 -22 14 -23 30 -3 30 12 0
13 4 5 19 -6 13 -17 18 -32 15 -13 -2 -18 -2 -11 2 14 6 -26 43 -102 94 -50
33 -86 68 -107 105 -6 11 11 -2 38 -28 73 -72 233 -145 399 -181 132 -28 240
-38 431 -37 301 0 528 43 734 139 86 40 210 154 210 194 0 23 16 23 25 1z
m4998 -129 c26 -5 37 -12 37 -23 0 -21 142 -80 148 -62 2 6 8 8 14 5 6 -4 5
-9 -3 -14 -9 -6 -3 -20 26 -52 45 -50 54 -55 66 -37 11 19 44 -1 45 -27 0 -11
13 -38 28 -62 28 -42 29 -74 2 -36 -8 10 -17 16 -20 13 -8 -8 51 -69 67 -69 6
0 20 -14 30 -31 17 -30 17 -31 -3 -36 -11 -3 -20 -9 -20 -15 0 -5 -8 -4 -19 2
-11 5 -36 10 -56 10 l-36 0 21 22 c21 22 22 22 52 5 17 -10 33 -16 35 -13 10
10 -9 47 -22 43 -7 -3 -24 1 -38 8 -23 12 -27 11 -32 -3 -7 -22 -65 -87 -85
-96 -8 -3 -30 -15 -47 -26 -76 -46 -245 -50 -358 -9 -135 49 -245 154 -245
232 0 27 30 67 51 67 5 0 6 6 3 13 -2 7 12 36 32 64 37 49 82 77 145 90 22 4
27 9 19 18 -8 9 -7 15 2 18 19 8 116 8 161 1z m-2941 -105 c65 -32 210 -168
308 -289 25 -30 81 -91 125 -135 44 -44 103 -111 130 -149 28 -38 67 -87 87
-107 21 -21 68 -73 104 -115 55 -62 63 -76 43 -71 -13 4 -73 12 -134 18 -60 6
-159 16 -220 23 l-110 13 95 2 c88 2 93 3 75 17 -11 8 -19 20 -17 26 4 17 -41
50 -61 44 -11 -2 -16 -2 -13 1 3 4 -3 16 -14 28 -18 19 -19 23 -6 28 10 4 16
19 16 40 0 26 -6 36 -25 45 -19 9 -25 19 -25 43 0 27 -3 31 -21 26 -16 -4 -20
-2 -16 12 4 18 -1 21 -61 22 -25 1 -32 5 -28 16 4 11 1 13 -14 8 -11 -4 -20
-2 -20 4 0 6 7 11 15 11 8 0 15 5 15 12 0 15 -23 82 -31 88 -13 10 -29 49 -29
69 0 21 -32 46 -44 34 -3 -3 -6 4 -6 16 0 12 4 19 10 16 6 -3 7 1 4 9 -7 19
-16 20 -32 4 -18 -18 -27 0 -9 20 11 12 13 22 7 32 -5 8 -10 11 -10 6 0 -12
-30 14 -30 26 0 6 6 6 14 -1 12 -10 13 -8 9 8 -3 11 -10 19 -16 18 -6 -1 -17
11 -25 26 -9 18 -19 26 -28 23 -8 -3 -13 -2 -10 3 3 5 -18 20 -48 34 -30 14
-57 31 -61 36 -8 14 23 2 107 -40z m-5037 -991 c-20 -101 -38 -192 -40 -203
-2 -11 -15 -85 -29 -165 -46 -257 -116 -682 -116 -706 0 -20 -5 -24 -31 -24
-28 0 -31 3 -25 23 3 12 9 40 12 62 5 32 27 159 69 400 2 11 9 55 16 98 8 47
16 72 21 65 5 -8 6 0 3 17 -3 17 5 84 19 150 13 66 24 109 25 95 2 -38 17 -57
19 -23 0 15 7 57 15 93 9 41 11 69 5 77 -5 7 -8 22 -5 35 4 20 4 20 6 -4 0
-16 5 -28 10 -28 10 0 20 52 24 117 1 18 5 33 8 33 4 0 10 21 14 48 4 26 10
42 12 35 2 -6 -12 -94 -32 -195z m5360 122 c110 -5 234 -14 275 -20 41 -6 127
-15 190 -21 124 -11 469 -57 670 -89 105 -17 177 -27 213 -29 4 -1 7 -8 7 -16
0 -18 0 -18 -75 -1 -33 8 -87 17 -120 20 -33 4 -82 11 -110 17 -27 5 -81 13
-120 18 -336 45 -482 62 -550 66 -97 6 -151 10 -320 27 -206 19 -837 16 -1014
-5 -80 -9 -147 -19 -150 -22 -2 -3 1 -11 7 -17 7 -7 12 -19 12 -28 0 -20 36
-96 49 -104 5 -4 13 -21 16 -39 4 -17 10 -36 14 -42 11 -18 31 -80 31 -97 0
-10 5 -15 13 -12 8 3 20 -10 30 -31 16 -33 16 -38 1 -68 l-17 -32 21 19 c18
16 24 17 37 6 14 -11 14 -15 1 -29 -19 -22 -56 -116 -56 -145 0 -12 -3 -25 -6
-29 -10 -10 -59 19 -80 49 -10 15 -31 41 -46 59 -15 18 -25 35 -23 39 3 3 1 3
-4 -1 -14 -12 -15 -33 -6 -86 6 -39 12 -50 33 -58 18 -7 27 -6 33 3 11 17 23
3 15 -17 -9 -24 -35 -29 -55 -11 -10 9 -26 16 -37 16 -37 0 -49 16 -36 45 7
14 12 41 12 59 0 18 3 36 7 40 11 11 4 139 -8 147 -6 4 -26 2 -45 -4 -31 -9
-36 -8 -71 26 -20 21 -41 37 -45 37 -4 0 -8 7 -8 15 0 7 -6 18 -13 22 -8 4
-35 35 -61 68 -27 33 -62 67 -78 77 -17 9 -25 19 -18 23 21 13 -2 25 -48 25
-61 0 -347 -57 -632 -126 -180 -43 -611 -152 -690 -174 -41 -11 -124 -34 -185
-50 -242 -65 -304 -82 -390 -109 -49 -16 -99 -31 -110 -34 -79 -19 -369 -108
-393 -121 -27 -14 -42 -13 -42 4 0 11 63 32 270 94 366 108 450 132 985 277
96 26 578 146 656 163 35 7 154 34 264 59 399 91 606 125 920 150 103 8 701 6
880 -3z m611 -206 c-3 -13 0 -24 6 -24 5 0 8 7 4 15 -3 8 -1 15 5 15 5 0 13
-8 16 -17 4 -10 22 -33 40 -50 36 -36 40 -48 19 -60 -7 -4 -19 -32 -26 -60
-12 -54 -27 -65 -51 -37 -9 11 -10 21 -3 32 13 22 3 66 -16 70 -35 8 -55 45
-22 41 29 -2 46 1 39 8 -4 3 -1 13 6 22 10 14 10 14 -5 3 -29 -23 -52 -1 -53
51 0 44 0 44 22 30 16 -11 22 -22 19 -39z m-2397 -162 c100 -50 192 -168 177
-227 -9 -34 -36 -41 -36 -9 0 73 -73 160 -176 210 -44 21 -74 42 -74 51 0 20
36 12 109 -25z m-329 -249 c0 -13 35 -58 79 -100 14 -13 51 -36 84 -52 62 -30
129 -35 185 -16 21 7 23 5 20 -16 -3 -23 -6 -24 -83 -23 -107 0 -175 27 -249
99 -56 53 -103 135 -90 156 7 13 54 -28 54 -48z m-474 -710 c9 -35 35 -64 42
-45 2 6 14 12 27 12 13 0 26 4 29 8 6 10 66 3 66 -7 0 -4 -9 -17 -20 -29 -26
-28 -25 -40 3 -44 31 -4 25 -21 -12 -32 -27 -8 -34 -5 -52 18 -11 14 -25 26
-30 26 -17 0 -9 -29 11 -40 11 -6 20 -16 20 -23 -1 -41 -83 -86 -96 -53 -9 23
2 32 21 16 12 -10 16 -9 21 5 5 11 1 21 -9 27 -10 5 -17 18 -17 30 0 17 -2 18
-15 8 -8 -7 -15 -9 -15 -4 0 4 -5 3 -12 -4 -18 -18 -35 -14 -41 10 -8 28 -2
34 17 18 12 -10 18 -9 29 2 14 14 7 64 -9 61 -6 -1 -8 14 -6 33 5 44 38 48 48
7z m-300 -101 c6 -4 13 -20 16 -37 3 -16 8 -38 12 -47 6 -13 3 -15 -13 -11
-24 6 -29 -12 -6 -21 8 -3 15 -12 15 -21 0 -9 -7 -18 -15 -21 -8 -4 -15 -15
-15 -25 0 -10 -5 -19 -10 -19 -6 0 -8 -11 -4 -25 5 -20 2 -25 -12 -26 -16 0
-15 -2 4 -9 25 -11 28 -23 9 -39 -10 -8 -17 -7 -25 1 -9 9 -12 9 -12 0 0 -7 5
-12 10 -12 6 0 10 -18 10 -40 0 -39 -9 -47 -43 -41 -5 1 -6 -3 -2 -9 3 -5 13
-10 21 -10 8 0 14 -9 14 -20 0 -22 -12 -25 -41 -10 -11 6 -19 7 -19 2 0 -6 9
-12 21 -15 29 -8 19 -31 -17 -38 l-29 -6 28 -11 c28 -12 35 -26 17 -37 -15 -9
-87 14 -94 30 -3 9 -19 15 -41 15 -19 0 -35 5 -35 10 0 18 31 24 62 12 28 -10
30 -9 40 19 5 16 14 29 19 29 5 0 4 9 -3 20 -9 14 -20 19 -33 16 -11 -3 -27
-1 -35 5 -13 8 -12 11 4 24 16 12 22 12 43 -2 21 -14 26 -14 34 -2 5 8 9 27 9
43 0 22 -3 26 -12 18 -18 -14 -63 -4 -84 19 -25 27 -12 33 43 20 26 -7 52 -13
58 -14 5 -1 12 12 15 28 6 28 5 30 -26 31 -18 0 -31 -3 -28 -8 3 -4 -6 -7 -19
-6 -16 1 -23 7 -20 15 3 8 -3 13 -16 13 -12 0 -21 -6 -21 -15 0 -8 -9 -15 -20
-15 -11 0 -20 4 -20 9 0 5 -3 17 -6 26 -5 12 -2 16 12 14 10 -2 24 0 30 4 15
9 67 9 120 1 40 -6 42 -5 46 25 3 21 0 31 -9 31 -7 0 -13 5 -13 10 0 6 7 10
15 10 8 0 17 12 21 28 11 51 26 92 32 92 4 0 12 -4 18 -8z m454 -111 c8 -35 9
-55 1 -68 -9 -16 -10 -16 -11 -1 0 19 -16 32 -29 23 -13 -7 50 -115 68 -115 9
0 11 -8 7 -26 -5 -19 -1 -30 15 -43 13 -10 19 -23 15 -29 -13 -21 -42 -13 -56
16 -9 19 -14 23 -18 12 -7 -21 -28 -40 -36 -33 -3 3 -3 17 0 29 5 19 1 26 -17
34 -23 10 -23 10 4 5 34 -7 34 4 0 58 -35 54 -35 54 -40 39 -3 -6 -9 -10 -14
-6 -14 8 -10 24 6 24 11 0 14 7 10 23 -4 15 -1 28 9 36 9 8 16 10 16 5 0 -5 5
-2 10 6 5 8 7 25 4 37 -4 15 -1 22 13 25 27 6 30 3 43 -51z m539 -14 c-2 -2
-38 -30 -79 -63 -83 -65 -108 -80 -160 -90 -19 -3 -39 -10 -45 -14 -10 -8 -70
-24 -70 -19 0 2 -14 -5 -31 -15 -31 -19 -64 -17 -64 4 0 6 11 15 25 22 20 9
23 14 14 32 -9 18 -8 19 3 6 7 -8 28 -15 46 -16 25 -1 32 3 32 18 0 13 4 17
13 11 6 -4 21 -8 32 -9 11 -1 25 -3 30 -5 11 -4 206 123 226 147 8 10 15 12
22 5 6 -6 9 -12 6 -14z m86 -46 c3 -5 -4 -12 -15 -16 -11 -3 -20 -12 -20 -18
0 -7 -9 -18 -21 -25 -12 -8 -18 -9 -14 -3 11 19 -33 12 -52 -7 -10 -10 -32
-24 -50 -31 -18 -7 -37 -19 -43 -26 -14 -17 -3 -42 22 -48 26 -7 19 -42 -22
-110 -33 -52 -36 -68 -20 -98 14 -25 3 -44 -14 -26 -7 7 -15 19 -18 27 -4 11
-9 7 -18 -12 -14 -29 -43 -37 -56 -16 -4 6 2 19 15 29 16 13 20 24 15 43 -5
20 -2 26 10 26 9 0 16 4 16 10 0 5 13 29 30 52 26 38 27 44 14 55 -9 6 -23 9
-31 6 -9 -4 -24 5 -37 20 -13 15 -25 26 -27 24 -3 -1 1 4 7 12 10 11 18 11 47
0 37 -13 30 -16 113 50 6 5 26 17 45 26 19 10 36 21 39 25 6 8 62 39 72 40 4
0 9 -4 13 -9z m220 -87 c4 -41 15 -64 31 -64 8 0 14 -4 14 -10 0 -5 -6 -10
-13 -10 -9 0 -12 -10 -9 -31 4 -30 6 -31 46 -25 59 9 107 7 121 -4 7 -6 21 -7
30 -3 15 5 17 3 12 -11 -4 -10 -7 -22 -7 -28 0 -5 -10 -8 -22 -6 -13 2 -22 9
-20 16 1 6 -7 12 -19 12 -13 0 -19 -5 -16 -13 3 -8 -5 -13 -22 -14 -23 -2 -24
-1 -6 8 15 7 10 8 -19 3 -27 -4 -42 -1 -48 8 -9 12 -1 -48 8 -63 2 -4 28 0 59
9 61 17 79 11 49 -17 -22 -22 -74 -36 -74 -21 0 5 -7 10 -15 10 -11 0 -13 -8
-8 -32 8 -46 18 -54 46 -35 22 14 27 14 43 2 15 -12 16 -16 6 -23 -7 -5 -24
-7 -37 -4 -16 3 -27 -2 -34 -17 -7 -12 -8 -21 -2 -21 5 0 14 -13 19 -29 10
-28 12 -29 40 -19 31 12 62 6 62 -12 0 -5 -16 -10 -35 -10 -22 0 -38 -6 -41
-15 -7 -16 -79 -39 -94 -30 -19 12 -10 26 23 38 l32 12 -34 5 c-40 6 -53 29
-22 37 12 3 21 9 21 15 0 5 -9 4 -20 -2 -11 -6 -25 -8 -30 -5 -18 11 -11 32
13 40 21 8 21 8 -5 12 -24 4 -28 9 -28 36 0 22 8 39 28 56 20 18 22 22 7 16
-32 -12 -58 -11 -63 3 -2 8 5 16 17 19 12 3 21 9 21 14 0 5 -7 6 -16 2 -14 -5
-15 -1 -9 27 5 23 4 30 -4 26 -7 -4 -11 1 -11 13 0 12 -4 21 -9 21 -17 0 -22
34 -6 42 9 6 13 17 10 31 -3 12 -8 35 -11 51 -5 19 -2 31 7 37 19 11 40 -12
44 -47z m-4712 -2420 c16 -14 52 -53 79 -87 166 -210 338 -413 464 -546 115
-122 159 -174 156 -183 -1 -5 2 -7 7 -4 5 4 12 2 16 -4 3 -6 -1 -13 -9 -16 -9
-3 -13 -11 -10 -16 4 -6 9 -6 14 2 4 7 14 10 21 8 10 -3 7 -8 -9 -17 -18 -10
-25 -9 -38 4 -11 10 -12 15 -3 15 12 0 3 15 -9 15 -10 0 -52 39 -150 135 -47
47 -90 84 -94 82 -4 -1 -8 4 -8 11 0 8 -9 22 -20 32 -11 10 -17 21 -15 26 10
15 -16 21 -33 7 -15 -11 -16 -11 -4 3 11 14 8 22 -18 50 -16 18 -30 36 -30 40
0 3 -9 16 -19 28 -14 16 -21 18 -24 9 -3 -7 -6 -3 -6 10 -1 12 -7 22 -15 22
-8 0 -16 6 -19 13 -2 6 -8 8 -13 4 -5 -5 -2 -14 7 -20 16 -12 15 -37 -2 -37
-4 0 -6 6 -3 14 3 8 1 17 -5 21 -6 3 -9 16 -5 29 3 14 -2 28 -15 40 -24 22
-44 12 -35 -16 5 -17 3 -20 -11 -14 -16 6 -16 4 -4 -10 8 -10 15 -12 17 -5 2
6 9 11 15 11 7 -1 1 -10 -13 -21 -22 -19 -25 -19 -28 -5 -2 9 -8 16 -13 16 -5
0 -9 6 -9 13 0 7 -9 20 -20 30 -11 9 -20 24 -20 32 0 8 -4 15 -10 15 -5 0 -10
7 -10 15 0 9 -7 18 -15 21 -8 4 -15 12 -15 19 0 8 -11 27 -25 43 -13 16 -22
32 -19 34 3 3 -14 24 -36 47 l-41 41 17 35 c20 42 44 45 87 9z m9510 -1762
c52 -28 97 -83 97 -117 0 -16 -4 -14 -19 11 -30 49 -90 93 -138 100 -39 6 -79
2 -318 -27 -44 -5 -116 -14 -160 -19 -94 -11 -327 -39 -370 -45 -16 -2 -88
-11 -160 -19 -71 -9 -161 -21 -200 -26 -38 -6 -108 -15 -155 -20 -47 -6 -137
-17 -200 -26 -63 -8 -160 -19 -215 -24 -55 -5 -120 -14 -145 -19 -39 -9 -344
-54 -455 -68 -22 -2 -96 -13 -165 -24 -69 -11 -192 -28 -275 -39 -82 -11 -186
-24 -230 -30 -44 -6 -111 -15 -150 -20 -38 -5 -180 -25 -314 -45 -233 -34
-428 -58 -554 -70 -32 -2 -62 -7 -67 -10 -30 -19 -506 -98 -547 -92 -18 3 -33
2 -33 -2 0 -12 -97 -28 -156 -26 -36 1 -60 7 -72 18 -15 16 -14 17 27 17 23 0
51 5 61 10 10 6 54 15 97 20 189 24 452 70 613 107 21 5 23 4 13 -9 -11 -12
-9 -14 8 -13 11 1 28 8 38 17 13 11 83 24 222 42 112 14 254 32 314 40 61 8
133 17 160 20 28 3 61 8 75 10 86 16 265 36 276 32 8 -3 14 -2 14 3 0 9 70 19
180 27 36 3 106 12 155 20 163 28 230 36 263 31 17 -3 32 -2 32 2 0 7 71 22
175 36 22 3 96 14 165 25 69 10 195 26 280 35 85 9 202 23 260 32 58 8 119 15
135 15 17 -1 48 3 71 8 36 8 132 19 314 35 36 4 142 15 235 25 94 11 199 22
235 25 64 6 323 41 410 56 65 10 117 2 173 -29z m-5077 -639 c-4 -4 -21 -8
-39 -10 -28 -2 -94 -10 -107 -13 -3 0 9 -7 25 -14 l30 -13 -50 -11 c-27 -7
-68 -14 -90 -17 -319 -37 -358 -51 -411 -150 -17 -33 -29 -65 -27 -72 3 -7 1
-13 -5 -13 -6 0 -8 14 -5 33 3 17 6 37 7 44 1 7 5 16 9 19 4 4 7 18 7 32 0 17
4 22 14 19 8 -3 16 2 19 14 3 12 0 19 -9 19 -8 0 -14 4 -14 9 0 15 24 30 65
40 22 6 64 17 93 25 28 8 114 22 190 31 75 9 162 20 192 24 73 11 115 13 106
4z m-7278 -110 c-2 -10 -9 -24 -15 -31 -7 -7 -13 -19 -13 -27 0 -7 -12 -16
-26 -19 -31 -8 -114 -83 -114 -103 0 -8 -4 -12 -8 -9 -4 2 -23 -9 -41 -25 -19
-16 -29 -30 -22 -30 6 -1 16 -3 21 -4 6 -1 47 -3 93 -4 52 -2 75 -5 62 -10
-11 -5 -26 -6 -32 -4 -7 3 -13 0 -13 -6 0 -6 7 -11 15 -11 8 0 15 -4 15 -9 0
-6 -12 -6 -29 -1 -16 4 -32 6 -35 2 -3 -3 -6 0 -6 6 0 17 -25 15 -40 -3 -10
-12 -10 -19 -2 -27 16 -16 15 -28 -3 -28 -8 0 -15 7 -15 15 0 11 -12 15 -42
16 -60 2 -70 -1 -85 -19 -7 -10 -13 -12 -13 -6 0 15 61 84 161 179 45 44 103
101 127 128 47 50 65 58 60 30z m12481 -92 c-17 -27 -70 -42 -178 -52 -53 -4
-163 -17 -246 -29 -184 -25 -383 -50 -450 -56 -27 -3 -106 -14 -175 -25 -69
-11 -165 -24 -215 -29 -49 -5 -126 -14 -170 -19 -110 -15 -239 -30 -305 -37
-54 -5 -54 -4 -27 11 16 8 43 15 60 16 18 1 47 8 66 16 19 9 46 13 64 9 16 -3
35 -2 42 4 13 11 110 26 220 35 156 12 202 18 307 39 42 8 130 20 195 26 208
18 302 28 313 35 10 6 299 37 317 34 4 -1 10 -1 13 0 3 1 24 3 48 5 24 1 47 8
52 16 4 7 17 11 28 8 11 -3 26 -2 33 3 20 12 21 11 8 -10z m-1819 -240 c40
-11 12 -20 -116 -36 -66 -9 -175 -24 -244 -35 -69 -10 -163 -24 -210 -30 -47
-6 -125 -17 -175 -25 -49 -8 -115 -17 -145 -20 -30 -3 -62 -8 -70 -10 -30 -9
-277 -45 -400 -59 -52 -5 -128 -16 -195 -26 -33 -5 -177 -25 -320 -45 -143
-19 -303 -42 -355 -50 -116 -19 -120 -19 -120 -1 0 20 15 28 59 32 20 2 70 11
111 19 41 7 123 18 182 23 59 6 113 14 120 18 15 10 30 13 78 15 19 1 43 6 52
11 9 4 52 11 95 14 158 12 250 23 313 38 80 19 165 30 205 28 17 -1 59 4 95
12 36 8 99 20 140 26 41 7 97 16 123 21 26 5 78 9 115 9 37 0 86 5 110 10 23
6 59 12 80 15 20 3 96 14 167 25 202 31 257 35 305 21z m150 -336 c19 -44 21
-73 3 -77 -10 -2 -17 -14 -18 -33 -2 -16 -6 -47 -10 -67 -6 -31 -5 -38 8 -38
9 0 19 5 22 10 3 6 17 7 31 4 22 -6 24 -3 25 27 0 19 3 43 6 54 3 11 6 62 7
113 1 108 17 118 29 18 9 -73 -7 -182 -40 -265 -16 -42 -18 -43 -25 -20 -6 19
-7 17 -3 -8 3 -25 -6 -50 -44 -115 -82 -139 -144 -190 -314 -257 -100 -39
-117 -43 -230 -48 -180 -9 -269 22 -397 136 -59 53 -71 73 -48 87 6 4 8 3 5
-3 -4 -6 0 -13 8 -17 8 -3 15 -13 15 -22 0 -13 6 -15 28 -11 23 5 30 1 40 -23
12 -25 62 -50 62 -29 0 4 -10 10 -22 12 -20 4 -20 4 4 6 22 1 25 5 21 24 -9
43 -25 65 -42 60 -10 -2 -24 4 -32 13 -9 11 -9 15 -1 10 7 -4 12 -1 12 8 0 9
-5 16 -11 16 -5 0 -7 5 -4 10 4 7 13 7 26 0 17 -9 19 -7 19 17 0 15 4 34 9 42
10 15 -8 41 -28 41 -14 0 -15 40 -1 41 6 1 14 2 19 3 6 0 16 7 23 14 16 16 34
15 65 -5 26 -17 26 -17 20 7 -5 22 0 28 41 47 103 49 180 81 242 103 36 12
131 53 212 92 82 38 172 77 200 87 l53 18 3 -31 c1 -17 7 -40 12 -51z m-2527
-16 c-9 -9 -96 -28 -328 -70 -230 -42 -334 -59 -455 -74 -69 -9 -219 -30 -335
-48 -115 -18 -238 -32 -272 -32 -54 1 -67 5 -100 31 -41 33 -58 61 -67 109 -6
26 -5 27 3 7 6 -12 10 -25 10 -28 -1 -10 54 -64 61 -59 3 2 18 -2 32 -9 19
-10 39 -11 79 -5 30 5 77 12 104 14 28 3 75 10 105 15 47 8 117 18 170 24 8 1
31 5 50 9 19 4 62 9 95 11 118 9 244 26 267 35 31 13 195 40 288 47 41 3 90
10 108 16 18 5 36 7 39 4 4 -3 12 -1 20 6 7 6 16 8 19 6 3 -3 20 -2 39 2 20 5
33 4 29 -1 -3 -5 0 -9 5 -9 6 0 11 7 11 16 0 14 3 14 15 4 9 -7 12 -17 8 -21z
m3565 -697 c-1 -20 2 -171 6 -334 6 -213 5 -298 -3 -298 -6 0 -11 5 -11 10 0
6 -7 10 -15 10 -8 0 -15 -6 -15 -14 0 -15 -9 -15 -50 -2 -29 10 -41 26 -32 40
3 6 5 29 3 53 -2 38 23 189 66 393 19 90 32 160 32 178 1 7 5 10 11 7 5 -3 9
-23 8 -43z m-773 -810 c-9 -162 -22 -306 -33 -363 -11 -53 -20 -130 -21 -172
-1 -42 -13 -125 -27 -185 -13 -59 -27 -132 -31 -162 -6 -57 -38 -133 -86 -207
-34 -53 -48 -55 -35 -5 5 20 12 51 15 67 3 17 9 35 13 40 4 6 13 34 19 64 9
43 9 56 -1 63 -17 10 -26 10 -32 -1 -7 -10 -25 -9 -42 1 -6 4 -18 -8 -28 -28
-16 -35 -16 -35 4 -29 20 6 21 5 24 -44 1 -8 7 -16 13 -18 9 -3 10 -10 3 -23
-6 -11 -17 -17 -25 -14 -8 4 -18 -1 -21 -10 -4 -9 -20 -24 -37 -32 l-30 -16
20 33 c13 22 26 33 37 31 15 -3 17 2 11 30 -4 18 -9 36 -12 41 -8 13 -46 7
-65 -10 -16 -14 -15 -9 5 35 14 29 32 61 41 71 20 22 21 38 1 21 -9 -7 -18
-10 -21 -7 -7 7 50 78 129 160 44 46 57 66 57 91 0 24 3 27 10 16 5 -8 10 -12
10 -8 0 3 3 14 7 24 4 11 3 15 -5 10 -12 -7 -20 26 -14 62 6 31 20 28 24 -5 4
-27 5 -26 25 17 12 24 19 48 17 52 -3 4 6 59 20 122 26 115 35 256 16 256 -15
0 -12 70 4 86 10 9 16 54 22 146 7 123 8 131 20 101 11 -26 11 -77 -1 -301z
m-3637 151 c42 -32 56 -48 175 -197 49 -61 96 -120 105 -131 10 -11 37 -45 61
-75 24 -30 51 -62 60 -70 9 -8 35 -40 58 -70 23 -30 56 -71 73 -90 63 -72 197
-256 210 -289 15 -37 47 -71 67 -71 8 0 34 -21 58 -47 86 -93 101 -104 178
-140 48 -23 76 -42 73 -49 -3 -8 1 -11 10 -7 7 3 14 0 14 -7 0 -6 4 -9 9 -5
14 8 25 -15 14 -26 -6 -6 -25 -5 -51 4 -23 8 -42 10 -42 5 0 -5 -5 -6 -12 -2
-7 4 -8 3 -4 -4 4 -6 24 -19 44 -28 20 -10 57 -32 82 -49 74 -52 170 -80 274
-80 57 0 91 4 93 11 3 8 14 8 41 -2 59 -21 91 -18 102 11 10 27 1 67 -49 208
-35 100 -39 129 -11 75 13 -24 26 -35 37 -34 10 2 28 0 40 -5 13 -5 25 -4 28
1 4 6 10 10 14 10 9 0 91 -174 91 -195 0 -8 5 -15 10 -15 6 0 10 -5 10 -10 0
-6 16 -52 36 -102 47 -121 105 -358 87 -358 -4 0 -15 8 -25 17 -15 14 -21 15
-27 4 -5 -7 -28 -15 -52 -17 -24 -2 -77 -6 -116 -10 -71 -6 -73 -5 -82 19 -9
23 -15 25 -71 24 -34 0 -66 5 -72 11 -9 9 -8 12 5 12 9 0 17 7 17 15 0 11 12
15 45 15 25 0 45 4 45 9 0 5 3 16 6 25 5 12 0 16 -17 16 -13 0 -31 5 -39 11
-11 8 -7 9 17 5 38 -6 48 5 31 35 -26 45 -46 59 -70 50 -29 -11 -63 -8 -80 6
-7 6 -41 15 -75 19 -35 3 -71 13 -80 20 -16 13 -7 14 64 9 48 -3 84 -1 88 4 3
6 12 8 20 5 8 -3 30 -1 49 6 29 9 34 15 33 38 l-2 27 -112 2 c-89 2 -125 7
-184 28 -40 14 -74 23 -76 21 -7 -6 50 -39 101 -57 72 -26 43 -24 -112 6 -13
2 -32 7 -43 10 -10 4 -19 3 -19 -2 0 -17 17 -34 40 -38 28 -5 39 -16 22 -22
-10 -4 -10 -8 -1 -19 6 -8 16 -11 22 -7 5 3 7 1 4 -4 -8 -13 59 -81 92 -94 25
-10 21 -24 -6 -24 -34 0 -24 -26 16 -42 32 -12 41 -21 41 -40 0 -19 -5 -23
-32 -23 -40 0 -101 21 -125 42 -10 8 -33 23 -50 34 -18 10 -33 26 -33 36 0 10
-4 18 -10 18 -5 0 -10 5 -10 11 0 5 25 -8 56 -30 31 -22 61 -38 65 -35 23 14
4 37 -52 64 -34 16 -68 35 -76 42 -8 6 -24 13 -34 15 -30 4 -81 55 -76 74 3
12 -16 37 -57 76 -33 32 -65 66 -71 75 -20 33 -70 104 -106 148 -66 81 -149
210 -137 211 7 0 3 4 -9 9 -13 5 -20 15 -18 22 3 7 -5 18 -17 23 -27 13 -38
38 -11 28 16 -6 17 -5 3 12 -8 11 -25 30 -37 43 -13 12 -23 27 -23 32 0 5 -9
12 -20 15 -16 5 -18 10 -10 26 8 15 7 19 -4 19 -7 0 -24 9 -37 21 -17 14 -19
19 -7 15 10 -3 20 -1 23 4 4 6 1 10 -4 10 -6 0 -11 5 -11 11 0 15 -46 69 -54
62 -3 -3 -10 7 -16 22 -9 24 -12 25 -27 14 -14 -12 -15 -11 -8 10 4 15 3 21
-3 17 -16 -10 -34 21 -27 45 6 18 4 21 -10 15 -15 -5 -16 -4 -6 8 10 12 9 14
-6 10 -25 -7 -49 32 -32 52 6 8 8 15 3 16 -5 0 -13 2 -19 3 -5 2 -14 3 -19 4
-5 0 -1 11 10 23 10 12 14 18 7 15 -6 -4 -20 4 -31 18 -11 14 -22 20 -24 14
-5 -16 -92 102 -91 123 1 10 -3 17 -10 15 -6 -1 -16 8 -22 21 -5 12 -13 22
-17 22 -5 0 -8 5 -8 10 0 7 6 7 20 0 11 -6 20 -20 20 -32 0 -17 3 -19 12 -10
8 8 8 15 -2 27 -7 8 -9 15 -5 15 4 0 -3 9 -16 20 -13 10 -20 19 -16 20 5 0 -1
13 -12 29 -12 16 -21 33 -21 38 0 6 -10 18 -22 29 -17 15 -20 16 -16 3 4 -9 3
-21 -2 -28 -5 -9 -13 -5 -29 15 -44 56 -15 73 47 27z m-875 -327 c5 -7 10 -6
17 4 8 11 9 9 5 -11 -5 -21 -2 -27 14 -32 13 -3 21 0 21 8 0 20 28 26 35 7 3
-9 2 -18 -4 -20 -5 -2 -7 -10 -5 -17 5 -11 10 -11 24 -3 23 15 50 3 50 -22 0
-11 5 -20 10 -20 6 0 10 7 10 15 0 22 17 18 23 -5 3 -10 0 -21 -7 -23 -6 -2
-8 -8 -4 -12 4 -4 15 -2 24 5 13 12 17 11 25 -1 7 -12 9 -12 10 1 1 8 0 20 -1
25 -1 6 10 -1 24 -14 14 -13 24 -27 21 -31 -2 -3 5 -14 15 -23 13 -11 20 -12
23 -4 2 6 10 -3 17 -20 8 -17 17 -30 20 -28 9 5 23 -6 48 -39 22 -28 21 -46
-1 -46 -8 0 -8 3 1 9 10 6 10 10 -2 20 -12 11 -14 8 -13 -19 l2 -32 -65 -3
c-36 -2 -71 -4 -78 -6 -8 -2 -19 4 -25 14 -18 29 -57 74 -114 134 -29 30 -55
63 -58 74 -4 10 -15 24 -25 29 -17 9 -80 91 -80 104 0 8 34 -6 43 -18z m-6605
-578 c-3 -47 -6 -45 70 -47 26 -1 42 -6 42 -13 0 -11 21 -25 68 -45 6 -3 12 0
12 6 0 6 -6 11 -14 11 -21 0 -41 29 -28 42 18 18 56 -26 48 -56 -4 -15 -2 -26
4 -26 5 0 10 -5 10 -11 0 -6 -7 -9 -15 -6 -8 4 -17 2 -20 -3 -11 -17 -37 -11
-42 10 -7 27 -23 25 -23 -2 -1 -21 -2 -21 -11 -5 -15 26 -42 22 -33 -5 11 -38
25 -50 40 -37 15 12 44 5 44 -11 0 -5 -16 -10 -35 -10 -28 0 -35 -4 -35 -19 0
-11 -7 -26 -15 -35 -20 -20 -19 -26 7 -26 l21 0 -21 -23 c-24 -25 -29 -57 -10
-57 17 0 48 31 48 49 0 12 3 12 12 3 9 -9 9 -15 0 -24 -18 -18 -14 -28 11 -28
22 -1 22 -1 2 -16 -18 -13 -20 -13 -23 0 -4 20 -11 20 -33 0 -19 -17 -39 -12
-39 10 0 9 -9 12 -25 8 -16 -3 -25 -11 -25 -24 0 -10 -7 -30 -16 -43 -13 -20
-20 -23 -35 -14 -21 11 -26 35 -8 41 5 2 7 11 4 21 -8 19 -25 13 -25 -8 0 -21
-68 -85 -90 -85 -10 0 -22 -5 -26 -11 -4 -8 -9 -8 -17 0 -6 6 -19 11 -29 11
-10 0 -18 7 -18 15 0 8 -6 15 -14 15 -8 0 -12 8 -9 23 3 14 -2 29 -12 37 -14
11 -20 11 -43 -2 -15 -8 -44 -18 -65 -21 -38 -6 -39 -6 -18 12 11 10 18 21 14
25 -3 3 0 6 8 6 8 0 20 9 26 19 10 16 9 22 -4 32 -13 11 -18 10 -30 -6 -14
-19 -15 -19 -28 -2 -8 12 -15 14 -20 8 -12 -20 -26 -12 -15 9 7 14 7 20 0 20
-5 0 -10 18 -10 40 0 33 -3 40 -20 40 -11 0 -20 -5 -20 -11 0 -5 -5 -7 -10 -4
-6 4 -8 11 -5 16 8 13 -9 11 -22 -2 -8 -8 -17 -8 -31 0 -10 6 -22 7 -26 4 -3
-3 -6 0 -6 7 0 17 72 86 112 106 16 8 34 12 40 8 6 -4 8 -3 5 3 -10 16 106 73
171 84 32 6 89 16 127 23 39 8 94 14 123 15 l52 1 -2 -42z m10284 -98 c23 0
29 4 24 16 -6 17 6 12 37 -14 20 -17 23 -44 5 -37 -18 6 -45 -17 -45 -37 0
-12 8 -18 24 -18 16 0 27 -8 33 -26 6 -14 14 -22 20 -19 7 4 7 12 0 25 -6 11
-6 21 -1 25 12 7 24 -12 16 -25 -3 -5 -2 -10 2 -10 5 0 15 -17 22 -37 7 -21
25 -48 39 -60 19 -16 23 -23 12 -24 -58 -7 -100 -33 -100 -64 0 -15 8 -16 73
-9 112 11 140 11 145 -5 2 -8 0 -11 -5 -8 -5 3 -32 0 -59 -8 -27 -8 -61 -17
-76 -20 -51 -10 -60 -67 -12 -79 28 -7 33 -24 7 -22 -14 1 -18 -7 -19 -41 -1
-34 3 -42 20 -47 19 -5 19 -6 2 -25 -14 -16 -15 -22 -5 -39 18 -29 5 -49 -35
-54 -40 -5 -38 -10 -56 132 -14 108 -34 214 -71 365 -24 101 -49 239 -33 183
4 -12 16 -18 36 -18z"/>
<path d="M7325 18575 c-115 -8 -284 -23 -375 -34 -91 -12 -189 -24 -217 -28
-29 -3 -57 -11 -62 -17 -14 -17 -24 -63 -14 -69 4 -3 53 3 108 13 135 25 245
35 245 23 0 -5 -44 -15 -97 -22 -118 -16 -170 -28 -179 -42 -9 -15 17 -30 42
-24 40 9 311 44 424 55 63 6 201 13 307 17 l191 6 16 63 c9 35 16 66 16 69 0
8 -173 4 -405 -10z"/>
<path d="M12690 18830 c0 -14 51 -61 99 -90 34 -21 40 -29 36 -49 -6 -23 -5
-23 40 -17 29 5 45 4 45 -3 0 -6 -3 -11 -7 -11 -5 0 -15 -4 -22 -9 -12 -8 -11
-13 8 -29 13 -10 22 -24 20 -31 -4 -10 -13 -6 -34 11 -34 27 -58 26 -95 -2
l-25 -20 40 0 c57 0 105 -32 105 -69 0 -20 6 -30 20 -34 23 -6 26 3 8 22 -11
12 -9 13 7 6 33 -12 47 -11 58 7 9 13 7 21 -7 36 -11 13 -14 22 -7 27 17 10
13 33 -9 55 -11 11 -21 23 -21 28 -4 21 -34 52 -45 48 -8 -3 -14 -1 -14 4 0 6
-7 10 -15 10 -9 0 -18 7 -21 15 -4 8 -17 15 -30 15 -13 0 -24 4 -24 9 0 5 -20
21 -45 35 -25 15 -45 31 -45 36 0 6 -4 10 -10 10 -5 0 -10 -4 -10 -10z"/>
</g>
</svg>
